<svg width="22" height="22" viewBox="0 0 22 22" fill="none" xmlns="http://www.w3.org/2000/svg">
<path d="M8.76682 15.6084C7.47035 15.6084 6.4156 16.6632 6.4156 17.9596C6.4156 19.2561 7.47035 20.3108 8.76682 20.3108C10.0633 20.3108 11.118 19.2561 11.118 17.9596C11.118 16.6632 10.0633 15.6084 8.76682 15.6084ZM8.76682 18.9001C8.24814 18.9001 7.82635 18.4783 7.82635 17.9596C7.82635 17.4409 8.24814 17.0191 8.76682 17.0191C9.28525 17.0191 9.7073 17.4409 9.7073 17.9596C9.7073 18.4783 9.28551 18.9001 8.76682 18.9001Z" fill="white"/>
<path d="M15.7268 15.6084C14.4303 15.6084 13.3755 16.6632 13.3755 17.9596C13.3755 19.2561 14.4303 20.3108 15.7268 20.3108C17.0232 20.3108 18.078 19.2561 18.078 17.9596C18.078 16.6632 17.0232 15.6084 15.7268 15.6084ZM15.7268 18.9001C15.2081 18.9001 14.7863 18.4783 14.7863 17.9596C14.7863 17.4409 15.2081 17.0191 15.7268 17.0191C16.2454 17.0191 16.6672 17.4409 16.6672 17.9596C16.6672 18.4783 16.2454 18.9001 15.7268 18.9001Z" fill="white"/>
<path d="M19.8051 6.28166C19.6711 6.1133 19.4679 6.01528 19.253 6.01528H6.90211L6.26093 2.77482C6.20474 2.49102 5.98091 2.27025 5.69617 2.21806L2.8747 1.70079C2.49077 1.63001 2.12397 1.88421 2.05367 2.26745C1.98336 2.65069 2.23705 3.01818 2.62033 3.08848L4.97013 3.51922L7.04014 13.9819C7.1055 14.3123 7.39541 14.5504 7.7321 14.5504H17.6072C17.9357 14.5504 18.2204 14.324 18.2945 14.0035L19.9403 6.87934C19.9887 6.66984 19.9389 6.44976 19.8051 6.28166ZM17.0462 13.1397H8.31141L7.18119 7.42625H18.3659L17.0462 13.1397Z" fill="white"/>
</svg>
