<svg width="16" height="16" viewBox="0 0 16 16" fill="none" xmlns="http://www.w3.org/2000/svg">
<path d="M0.525606 0.547476C0.815922 0.256439 1.28662 0.256439 1.57693 0.547476L15.4142 14.419C15.7045 14.7101 15.7045 15.1819 15.4142 15.473C15.1238 15.764 14.6531 15.764 14.3628 15.473L0.525607 1.60141C0.235291 1.31038 0.235291 0.838512 0.525606 0.547476Z" fill="#D0D0D0"/>
<path d="M0.585722 15.4525C0.295406 15.1615 0.295406 14.6896 0.585722 14.3986L14.4229 0.527007C14.7133 0.235972 15.184 0.235971 15.4743 0.527007C15.7646 0.818043 15.7646 1.28991 15.4743 1.58094L1.63705 15.4525C1.34673 15.7435 0.876038 15.7435 0.585722 15.4525Z" fill="#D0D0D0"/>
</svg>
