<svg width="30" height="30" viewBox="0 0 30 30" fill="none" xmlns="http://www.w3.org/2000/svg">
<path fill-rule="evenodd" clip-rule="evenodd" d="M9.33061 1.3325C10.7969 1.265 11.2644 1.25 14.9994 1.25C18.7344 1.25 19.2019 1.26625 20.6669 1.3325C22.1319 1.39875 23.1319 1.6325 24.0069 1.97125C24.9231 2.3175 25.7544 2.85875 26.4419 3.55875C27.1419 4.245 27.6819 5.075 28.0269 5.9925C28.3669 6.8675 28.5994 7.8675 28.6669 9.33C28.7344 10.7987 28.7494 11.2662 28.7494 15C28.7494 18.735 28.7331 19.2025 28.6669 20.6688C28.6006 22.1313 28.3669 23.1313 28.0269 24.0063C27.6818 24.9239 27.141 25.7552 26.4419 26.4425C25.7544 27.1425 24.9231 27.6825 24.0069 28.0275C23.1319 28.3675 22.1319 28.6 20.6694 28.6675C19.2019 28.735 18.7344 28.75 14.9994 28.75C11.2644 28.75 10.7969 28.7337 9.33061 28.6675C7.86811 28.6012 6.86811 28.3675 5.99311 28.0275C5.07551 27.6825 4.24413 27.1416 3.55686 26.4425C2.85733 25.7558 2.316 24.9249 1.97061 24.0075C1.63186 23.1325 1.39936 22.1325 1.33186 20.67C1.26436 19.2013 1.24936 18.7337 1.24936 15C1.24936 11.265 1.26561 10.7975 1.33186 9.3325C1.39811 7.8675 1.63186 6.8675 1.97061 5.9925C2.31651 5.0751 2.85826 4.24414 3.55811 3.5575C4.24441 2.85813 5.07495 2.3168 5.99186 1.97125C6.86686 1.6325 7.86686 1.4 9.32936 1.3325H9.33061ZM20.5556 3.8075C19.1056 3.74125 18.6706 3.7275 14.9994 3.7275C11.3281 3.7275 10.8931 3.74125 9.44311 3.8075C8.10186 3.86875 7.37436 4.0925 6.88936 4.28125C6.24811 4.53125 5.78936 4.8275 5.30811 5.30875C4.85192 5.75256 4.50083 6.29285 4.28061 6.89C4.09186 7.375 3.86811 8.1025 3.80686 9.44375C3.74061 10.8938 3.72686 11.3287 3.72686 15C3.72686 18.6712 3.74061 19.1062 3.80686 20.5562C3.86811 21.8975 4.09186 22.625 4.28061 23.11C4.50061 23.7063 4.85186 24.2475 5.30811 24.6912C5.75186 25.1475 6.29311 25.4988 6.88936 25.7188C7.37436 25.9075 8.10186 26.1313 9.44311 26.1925C10.8931 26.2588 11.3269 26.2725 14.9994 26.2725C18.6719 26.2725 19.1056 26.2588 20.5556 26.1925C21.8969 26.1313 22.6244 25.9075 23.1094 25.7188C23.7506 25.4688 24.2094 25.1725 24.6906 24.6912C25.1469 24.2475 25.4981 23.7063 25.7181 23.11C25.9069 22.625 26.1306 21.8975 26.1919 20.5562C26.2581 19.1062 26.2719 18.6712 26.2719 15C26.2719 11.3287 26.2581 10.8938 26.1919 9.44375C26.1306 8.1025 25.9069 7.375 25.7181 6.89C25.4681 6.24875 25.1719 5.79 24.6906 5.30875C24.2468 4.85259 23.7065 4.50151 23.1094 4.28125C22.6244 4.0925 21.8969 3.86875 20.5556 3.8075ZM13.2431 19.2388C14.2239 19.647 15.3161 19.7021 16.333 19.3947C17.35 19.0872 18.2286 18.4361 18.8189 17.5528C19.4091 16.6695 19.6744 15.6086 19.5694 14.5514C19.4644 13.4942 18.9956 12.5062 18.2431 11.7562C17.7634 11.2768 17.1834 10.9098 16.5448 10.6814C15.9062 10.4531 15.2249 10.3692 14.55 10.4358C13.8751 10.5023 13.2233 10.7177 12.6416 11.0664C12.0599 11.4151 11.5628 11.8884 11.186 12.4523C10.8092 13.0162 10.5621 13.6566 10.4625 14.3275C10.3629 14.9983 10.4133 15.6829 10.61 16.3319C10.8068 16.9809 11.145 17.5783 11.6003 18.0809C12.0556 18.5835 12.6166 18.979 13.2431 19.2388ZM10.0019 10.0025C10.6581 9.34622 11.4373 8.82563 12.2947 8.47045C13.1522 8.11527 14.0712 7.93247 14.9994 7.93247C15.9275 7.93247 16.8465 8.11527 17.704 8.47045C18.5615 8.82563 19.3406 9.34622 19.9969 10.0025C20.6531 10.6588 21.1737 11.4379 21.5289 12.2954C21.8841 13.1528 22.0669 14.0719 22.0669 15C22.0669 15.9281 21.8841 16.8472 21.5289 17.7046C21.1737 18.5621 20.6531 19.3412 19.9969 19.9975C18.6714 21.3229 16.8738 22.0675 14.9994 22.0675C13.1249 22.0675 11.3273 21.3229 10.0019 19.9975C8.67644 18.6721 7.93183 16.8744 7.93183 15C7.93183 13.1256 8.67644 11.3279 10.0019 10.0025ZM23.6344 8.985C23.797 8.83159 23.9272 8.6471 24.0172 8.44247C24.1073 8.23783 24.1554 8.01721 24.1586 7.79366C24.1619 7.57011 24.1203 7.34818 24.0362 7.14101C23.9522 6.93384 23.8274 6.74564 23.6693 6.58755C23.5112 6.42946 23.323 6.3047 23.1158 6.22065C22.9087 6.1366 22.6867 6.09497 22.4632 6.09823C22.2396 6.10149 22.019 6.14957 21.8144 6.23962C21.6098 6.32967 21.4253 6.45987 21.2719 6.6225C20.9735 6.93879 20.8101 7.3589 20.8165 7.79366C20.8228 8.22842 20.9983 8.6436 21.3058 8.95105C21.6133 9.25851 22.0284 9.43404 22.4632 9.44037C22.898 9.44671 23.3181 9.28336 23.6344 8.985Z" fill="#9A9BA0"/>
</svg>
