<svg width="22" height="22" viewBox="0 0 22 22" fill="none" xmlns="http://www.w3.org/2000/svg">
<path d="M19.7649 6.08433H19.7563C19.6329 5.87514 19.4585 5.70068 19.2493 5.5773L11.6868 1.3062C11.4803 1.19184 11.2482 1.13184 11.0122 1.13184C10.7762 1.13184 10.544 1.19184 10.3376 1.3062L2.77506 5.56011C2.56152 5.68075 2.38365 5.85566 2.25943 6.06714C2.25943 6.06827 2.25921 6.06939 2.25878 6.07043C2.25835 6.07147 2.25772 6.07242 2.25692 6.07322C2.25612 6.07401 2.25517 6.07465 2.25413 6.07508C2.25309 6.07551 2.25197 6.07573 2.25084 6.07573V6.09292C2.13052 6.29565 2.0681 6.5275 2.07037 6.76323V15.2367C2.07081 15.4816 2.13627 15.7221 2.26008 15.9335C2.38389 16.1449 2.56161 16.3196 2.77506 16.4398L10.3376 20.6937C10.528 20.7976 10.7396 20.8564 10.9563 20.8656H11.0766C11.2904 20.8551 11.499 20.7963 11.6868 20.6937L19.2493 16.4398C19.4605 16.3178 19.6361 16.1425 19.7582 15.9313C19.8804 15.7202 19.9449 15.4806 19.9454 15.2367V6.76323C19.9466 6.52491 19.8843 6.29057 19.7649 6.08433ZM11.0079 2.50933L17.8657 6.35933L15.2274 7.85464L8.30084 4.03042L11.0079 2.50933ZM11.0852 10.2093L4.16725 6.35933L6.89147 4.82964L13.8266 8.65386L11.0852 10.2093ZM3.44537 7.52808L10.3977 11.4039L10.329 19.1125L3.44537 15.2367V7.52808ZM11.704 19.1039L11.7727 11.4039L14.5313 9.8312V13.1054C14.5313 13.2878 14.6037 13.4626 14.7327 13.5916C14.8616 13.7205 15.0365 13.7929 15.2188 13.7929C15.4011 13.7929 15.576 13.7205 15.7049 13.5916C15.8339 13.4626 15.9063 13.2878 15.9063 13.1054V9.04917L18.5704 7.53667V15.2367L11.704 19.1039Z" fill="black"/>
</svg>
