<svg width="97" height="97" viewBox="0 0 97 97" fill="none" xmlns="http://www.w3.org/2000/svg">
<path d="M97 48.5C97 75.2855 75.2855 97 48.5 97C21.7172 97 0 75.2855 0 48.5C0 21.7172 21.7172 0 48.5 0C75.2855 0 97 21.7172 97 48.5Z" fill="#F2F2F2"/>
<path d="M46.6467 47.4549C46.1724 47.0696 45.4961 47.0588 45.003 47.4172C44.9707 47.4414 41.608 49.8476 35.0282 49.8476C28.4511 49.8476 25.0857 47.4414 25.0588 47.4226C24.5657 47.0534 23.8867 47.0642 23.4125 47.4468C22.9329 47.8294 22.7712 48.4869 23.0191 49.0473C23.1807 49.4111 27.0607 57.9309 35.0282 57.9309C42.9984 57.9309 46.8757 49.4111 47.0374 49.0473C47.2852 48.4896 47.1236 47.8375 46.6467 47.4549ZM73.5911 47.4549C73.1169 47.0696 72.4433 47.0561 71.9475 47.4172C71.9152 47.4414 68.5498 49.8476 61.9727 49.8476C55.3982 49.8476 52.0302 47.4414 52.0032 47.4226C51.5101 47.0534 50.8338 47.0642 50.3569 47.4468C49.8773 47.8294 49.7156 48.4869 49.9635 49.0473C50.1252 49.4111 54.0052 57.9309 61.9727 57.9309C69.9428 57.9309 73.8201 49.4111 73.9818 49.0473C74.2297 48.4896 74.068 47.8375 73.5911 47.4549ZM59.2782 75.4448H37.7227C36.2353 75.4448 35.0282 74.2404 35.0282 72.7503C35.0282 71.2603 36.2353 70.0559 37.7227 70.0559H59.2782C60.7682 70.0559 61.9727 71.2603 61.9727 72.7503C61.9727 74.2404 60.7682 75.4448 59.2782 75.4448ZM16.1671 37.7226C14.6798 37.7226 13.4727 36.5154 13.4727 35.0281C13.4727 33.5435 14.6717 32.3391 16.1563 32.3337C16.5767 32.3283 25.7728 32.1019 32.8754 22.6337C33.7672 21.4481 35.4539 21.2002 36.6476 22.0948C37.8385 22.9866 38.0783 24.6761 37.1865 25.867C28.3945 37.5878 16.6629 37.7226 16.1671 37.7226ZM80.8338 37.7226C80.338 37.7226 68.6091 37.5878 59.8171 25.867C58.9226 24.6761 59.165 22.9866 60.356 22.0948C61.5442 21.1975 63.231 21.4427 64.1255 22.6337C71.2416 32.1208 80.4566 32.331 80.8472 32.3337C82.3292 32.3498 83.5255 33.5623 83.5174 35.0416C83.5121 36.5262 82.3157 37.7226 80.8338 37.7226Z" fill="#E4E4E4"/>
</svg>
