<svg width="28" height="28" viewBox="0 0 28 28" fill="none" xmlns="http://www.w3.org/2000/svg">
<path fill-rule="evenodd" clip-rule="evenodd" d="M14 0C12.7925 0 10.7748 0.46375 8.87601 0.98C6.93351 1.505 4.97526 2.12625 3.82376 2.5025C3.34232 2.66149 2.91549 2.95306 2.59231 3.34373C2.26913 3.73439 2.06271 4.20829 1.99676 4.711C0.953759 12.5458 3.37401 18.3523 6.31051 22.1935C7.55578 23.8367 9.04056 25.2837 10.7153 26.4862C11.3908 26.964 12.0173 27.3298 12.5493 27.58C13.0393 27.811 13.566 28 14 28C14.434 28 14.959 27.811 15.4508 27.58C16.0921 27.2683 16.7057 26.9024 17.2848 26.4862C18.9595 25.2837 20.4443 23.8367 21.6895 22.1935C24.626 18.3523 27.0463 12.5458 26.0033 4.711C25.9374 4.20805 25.7311 3.73387 25.4079 3.34291C25.0847 2.95194 24.6578 2.66005 24.1763 2.50075C22.5047 1.95267 20.8201 1.44503 19.124 0.97825C17.2253 0.4655 15.2075 0 14 0ZM17.7555 9.0055C17.9198 8.8412 18.1427 8.74889 18.375 8.74889C18.6074 8.74889 18.8302 8.8412 18.9945 9.0055C19.1588 9.1698 19.2511 9.39264 19.2511 9.625C19.2511 9.85736 19.1588 10.0802 18.9945 10.2445L13.7445 15.4945C13.6632 15.576 13.5667 15.6406 13.4604 15.6847C13.3541 15.7289 13.2401 15.7516 13.125 15.7516C13.0099 15.7516 12.896 15.7289 12.7896 15.6847C12.6833 15.6406 12.5868 15.576 12.5055 15.4945L9.88051 12.8695C9.79916 12.7881 9.73462 12.6916 9.69059 12.5853C9.64656 12.479 9.6239 12.3651 9.6239 12.25C9.6239 12.1349 9.64656 12.021 9.69059 11.9147C9.73462 11.8084 9.79916 11.7119 9.88051 11.6305C9.96186 11.5491 10.0584 11.4846 10.1647 11.4406C10.271 11.3966 10.385 11.3739 10.5 11.3739C10.6151 11.3739 10.729 11.3966 10.8353 11.4406C10.9416 11.4846 11.0382 11.5491 11.1195 11.6305L13.125 13.6378L17.7555 9.0055Z" fill="#22AD6A"/>
</svg>
