<svg viewBox="0 0 26 26" fill="none" xmlns="http://www.w3.org/2000/svg">
<path d="M24.0752 1.4467C23.7541 1.46982 23.4389 1.54437 23.1419 1.66743H23.1379C22.8529 1.77928 21.4976 2.34348 19.4371 3.19869L12.0534 6.27604C6.75518 8.48334 1.54699 10.657 1.54699 10.657L1.609 10.6332C1.609 10.6332 1.24992 10.75 0.874831 11.0044C0.643106 11.1503 0.443706 11.3413 0.288697 11.5656C0.104654 11.8329 -0.0433795 12.2417 0.0116331 12.6643C0.101654 13.379 0.569761 13.8076 0.905838 14.0442C1.24592 14.2837 1.56999 14.3955 1.56999 14.3955H1.57799L6.46212 16.0238C6.68117 16.7196 7.95046 20.8492 8.25553 21.8004C8.43557 22.3685 8.61061 22.7239 8.82966 22.9951C8.93568 23.1337 9.05971 23.2495 9.20875 23.3425C9.28622 23.3871 9.36883 23.4224 9.4548 23.4475L9.40479 23.4356C9.41979 23.4395 9.4318 23.4514 9.4428 23.4554C9.48281 23.4663 9.50982 23.4702 9.56083 23.4781C10.334 23.7098 10.9551 23.2346 10.9551 23.2346L10.9902 23.2069L13.8738 20.6086L18.7069 24.2779L18.817 24.3244C19.8242 24.7619 20.8444 24.5184 21.3835 24.0889C21.9267 23.6563 22.1377 23.103 22.1377 23.103L22.1727 23.0139L25.9076 4.07963C26.0136 3.61243 26.0406 3.17493 25.9236 2.7503C25.8029 2.32054 25.5243 1.95092 25.1424 1.71395C24.8218 1.52105 24.4499 1.42794 24.0752 1.4467ZM23.9741 3.47584C23.9701 3.53819 23.9821 3.53127 23.9541 3.65103V3.66192L20.2543 22.3992C20.2383 22.426 20.2113 22.4844 20.1373 22.5428C20.0592 22.6041 19.9972 22.6427 19.6721 22.515L13.7608 18.0302L10.19 21.251L10.9401 16.5098L20.5984 7.60141C20.9965 7.23518 20.8634 7.15797 20.8634 7.15797C20.8914 6.70859 20.2623 7.02632 20.2623 7.02632L8.08349 14.4925L8.07949 14.4727L2.24215 12.5277V12.5238L2.22714 12.5208C2.23738 12.5175 2.2474 12.5135 2.25715 12.5089L2.28916 12.4931L2.32016 12.4822C2.32016 12.4822 7.53236 10.3086 12.8306 8.10127C15.4832 6.99564 18.1558 5.88209 20.2113 5.02293C22.2667 4.16871 23.7861 3.54215 23.8721 3.5085C23.9541 3.47682 23.9151 3.47682 23.9741 3.47682V3.47584Z" fill="#9A9BA0"/>
</svg>
