<svg width="34" height="35" viewBox="0 0 34 35" fill="none" xmlns="http://www.w3.org/2000/svg">
<path d="M34 24.5285C34 26.8045 32.1547 26.5891 29.8788 26.5891H4.12121C1.84527 26.5891 0 26.8045 0 24.5285L2.06061 10.1094C2.36248 8.3064 3.09091 8.04883 4.12121 8.04883H29.8788C30.9091 8.04883 31.7241 8.26313 31.9394 10.1094L34 24.5285Z" fill="#5C64B3"/>
<path d="M27.818 15.7759C27.818 16.63 27.1256 17.3214 26.2725 17.3214H7.7271C6.87297 17.3214 6.18164 16.63 6.18164 15.7759C6.18164 14.9218 6.874 14.2305 7.7271 14.2305H26.2725C27.1256 14.2305 27.818 14.9218 27.818 15.7759Z" fill="#292F33"/>
<path d="M25.4995 16.4848V2.06061C25.4995 0.922121 24.5774 0 23.4389 0H10.045C8.90753 0 7.98438 0.922121 7.98438 2.06061V16.4848H25.4995Z" fill="#DBDFFF"/>
<path d="M34 24.5335C34 23.3961 33.0768 22.4729 31.9394 22.4729H2.06061C0.923151 22.4729 0 23.3961 0 24.5335V32.7759C0 33.9134 0.923151 34.8365 2.06061 34.8365H31.9394C33.0768 34.8365 34 33.9134 34 32.7759V24.5335Z" fill="#404893"/>
<path d="M12.3633 22.4729V28.6547C12.3633 29.7922 13.2864 30.7153 14.4239 30.7153H19.5754C20.7139 30.7153 21.636 29.7922 21.636 28.6547V22.4729H12.3633Z" fill="#30366F"/>
<path d="M21.636 22.473V21.4427C21.636 20.3052 20.7139 19.3821 19.5754 19.3821H14.4239C13.2864 19.3821 12.3633 20.3052 12.3633 21.4427V22.473H21.636ZM18.5451 27.1094C18.5451 27.9624 17.8527 28.6548 16.9996 28.6548C16.1455 28.6548 15.4542 27.9624 15.4542 27.1094V26.079C15.4542 25.226 16.1455 24.5336 16.9996 24.5336C17.8527 24.5336 18.5451 25.226 18.5451 26.079V27.1094Z" fill="#717ACF"/>
<path d="M23.1814 3.92751C23.1814 4.21187 22.9506 4.44266 22.6663 4.44266H14.939C14.6546 4.44266 14.4238 4.21187 14.4238 3.92751C14.4238 3.64314 14.6546 3.41235 14.939 3.41235H22.6663C22.9506 3.41235 23.1814 3.64314 23.1814 3.92751ZM23.1814 8.04872C23.1814 8.33308 22.9506 8.56387 22.6663 8.56387H14.939C14.6546 8.56387 14.4238 8.33308 14.4238 8.04872C14.4238 7.76435 14.6546 7.53357 14.939 7.53357H22.6663C22.9506 7.53357 23.1814 7.76435 23.1814 8.04872ZM23.1814 12.1699C23.1814 12.4543 22.9506 12.6851 22.6663 12.6851H14.939C14.6546 12.6851 14.4238 12.4543 14.4238 12.1699C14.4238 11.8856 14.6546 11.6548 14.939 11.6548H22.6663C22.9506 11.6548 23.1814 11.8856 23.1814 12.1699Z" fill="#5C64B3"/>
<path d="M11.8487 4.95782C12.4177 4.95782 12.879 4.49654 12.879 3.92752C12.879 3.3585 12.4177 2.89722 11.8487 2.89722C11.2796 2.89722 10.8184 3.3585 10.8184 3.92752C10.8184 4.49654 11.2796 4.95782 11.8487 4.95782Z" fill="#5C64B3"/>
<path d="M11.8487 9.07892C12.4177 9.07892 12.879 8.61763 12.879 8.04861C12.879 7.47959 12.4177 7.01831 11.8487 7.01831C11.2796 7.01831 10.8184 7.47959 10.8184 8.04861C10.8184 8.61763 11.2796 9.07892 11.8487 9.07892Z" fill="#5C64B3"/>
<path d="M11.8487 13.2C12.4177 13.2 12.879 12.7387 12.879 12.1697C12.879 11.6007 12.4177 11.1394 11.8487 11.1394C11.2796 11.1394 10.8184 11.6007 10.8184 12.1697C10.8184 12.7387 11.2796 13.2 11.8487 13.2Z" fill="#5C64B3"/>
</svg>
