<svg width="34" height="34" viewBox="0 0 34 34" fill="none" xmlns="http://www.w3.org/2000/svg">
<path d="M30.2222 0H9.44444C7.35817 0 5.66667 1.6915 5.66667 3.77778V26.4444H3.77778C1.6915 26.4444 0 28.1359 0 30.2222C0 32.3085 1.6915 34 3.77778 34H26.4444C28.5307 34 30.2222 32.3085 30.2222 30.2222V7.55556C32.3085 7.55556 34 5.86406 34 3.77778C34 1.6915 32.3085 0 30.2222 0Z" fill="#BFC6FF"/>
<path d="M7.55566 9.44417H30.2223V7.55528H9.44455L7.55566 6.61084V9.44417Z" fill="#9BA4F3"/>
<path d="M9.44444 0C7.35817 0 5.66667 1.6915 5.66667 3.77778V26.9686C5.10944 26.6437 4.46911 26.4444 3.77778 26.4444C1.6915 26.4444 0 28.1359 0 30.2222C0 32.3085 1.6915 34 3.77778 34C5.86406 34 7.55556 32.3085 7.55556 30.2222V7.03139C8.11278 7.35628 8.75311 7.55556 9.44444 7.55556C11.5307 7.55556 13.2222 5.86406 13.2222 3.77778C13.2222 1.6915 11.5307 0 9.44444 0Z" fill="#DBDFFF"/>
<path d="M11.3331 3.77805C11.3331 4.82072 10.4869 5.66694 9.44423 5.66694C8.40156 5.66694 7.55534 4.82072 7.55534 3.77805C7.55534 2.73538 8.40156 1.88916 9.44423 1.88916C10.4869 1.88916 11.3331 2.73538 11.3331 3.77805ZM5.66645 30.2225C5.66645 31.2652 4.82023 32.1114 3.77756 32.1114C2.73489 32.1114 1.88867 31.2652 1.88867 30.2225C1.88867 29.1798 2.73489 28.3336 3.77756 28.3336C4.82023 28.3336 5.66645 29.1798 5.66645 30.2225ZM28.3331 14.1669C28.3331 14.6883 27.9109 15.1114 27.3887 15.1114H10.3887C9.86734 15.1114 9.44423 14.6883 9.44423 14.1669C9.44423 13.6456 9.86734 13.2225 10.3887 13.2225H27.3887C27.9109 13.2225 28.3331 13.6456 28.3331 14.1669ZM28.3331 17.9447C28.3331 18.467 27.9109 18.8892 27.3887 18.8892H10.3887C9.86734 18.8892 9.44423 18.467 9.44423 17.9447C9.44423 17.4224 9.86734 17.0003 10.3887 17.0003H27.3887C27.9109 17.0003 28.3331 17.4224 28.3331 17.9447ZM28.3331 21.7225C28.3331 22.2448 27.9109 22.6669 27.3887 22.6669H10.3887C9.86734 22.6669 9.44423 22.2448 9.44423 21.7225C9.44423 21.2002 9.86734 20.778 10.3887 20.778H27.3887C27.9109 20.778 28.3331 21.2002 28.3331 21.7225ZM28.3331 25.5003C28.3331 26.0226 27.9109 26.4447 27.3887 26.4447H10.3887C9.86734 26.4447 9.44423 26.0226 9.44423 25.5003C9.44423 24.978 9.86734 24.5558 10.3887 24.5558H27.3887C27.9109 24.5558 28.3331 24.978 28.3331 25.5003Z" fill="#5C64B3"/>
</svg>
