<svg width="148" height="35" viewBox="0 0 148 35" fill="none" xmlns="http://www.w3.org/2000/svg">
<path fill-rule="evenodd" clip-rule="evenodd" d="M17.5789 18.721C20.5849 19.1899 20.9912 20.9871 21.2342 22.6598L21.2747 22.945L21.3023 23.1391L21.4487 24.1235C21.735 26.003 22.3325 29.9043 22.3325 31.9401C22.3325 32.4489 22.2882 32.8394 22.2072 33.054C22.0724 33.3847 21.6794 33.702 21.1367 33.9665C19.8237 34.2931 18.4513 34.4697 17.0376 34.4697C16.888 34.4697 16.7407 34.4623 16.5929 34.4579C16.0216 34.2939 15.5922 34.0202 15.3648 33.6461C14.6783 32.517 14.637 30.0013 14.6232 27.0615L14.6217 26.7206L14.6161 25.8394C14.5937 22.7273 14.5745 20.0439 15.6936 19.081C16.127 18.7107 16.7428 18.588 17.5789 18.721ZM11.0252 25.4967C11.6766 25.4597 12.0955 28.6972 12.1797 31.1522C12.2387 32.8614 12.0611 33.5644 11.7774 33.8169C11.4564 33.7086 11.1408 33.5914 10.8299 33.4641C10.6225 33.0832 10.464 32.4842 10.3633 31.6996C10.0558 29.2338 10.3229 25.5402 11.0252 25.4967ZM27.3561 30.3348C27.3154 30.5596 27.2581 30.7334 27.1875 30.8799C26.6306 31.3315 26.0452 31.7461 25.4326 32.1192C25.2375 32.1523 25.0642 32.1292 24.9795 31.9846C24.1676 30.5431 23.8628 26.0211 24.6485 25.6275C25.6729 25.1275 27.5079 29.553 27.3561 30.3348ZM16.7952 0.530273C25.9415 0.530273 33.3794 7.84911 33.5844 16.9562L33.5886 17.271V17.4165C33.5719 21.5303 32.0736 25.2939 29.6052 28.207C29.5157 28.1616 29.3524 28.013 29.0565 27.5658C28.7503 27.1162 26.1098 23.0101 26.1098 18.304C26.1098 17.3804 27.4273 15.9377 28.5932 14.6713C29.4647 13.7184 30.2902 12.8195 30.5942 12.113C30.9814 11.2015 30.7105 10.5649 30.2821 10.3492C29.8942 10.1574 29.312 10.2973 28.9033 11.0306C28.2328 12.2174 28.018 12.4392 27.0399 13.2333C26.0775 14.0269 24.5474 14.8259 24.5474 13.7917C24.5474 13.2333 25.3996 11.9686 25.8206 11.0821C26.2506 10.1858 25.7872 9.5369 24.8994 9.5369C23.156 9.5369 21.9988 11.7809 21.9988 12.5583C21.9988 13.3351 22.3717 13.4457 22.3717 14.3503C22.3717 15.2617 20.459 16.4438 18.6571 16.4438C16.9224 16.4438 15.9164 16.089 15.4996 15.0895L15.4464 14.9492L15.3259 14.589C14.8985 13.3268 14.5919 12.4114 14.0581 11.4547C13.7747 10.9488 13.3374 10.5981 12.9592 10.2895C12.465 9.90157 12.2085 9.54437 12.155 9.27798C12.1057 9.01369 12.0791 8.51562 12.9241 7.36747C13.7673 6.22588 13.8854 5.36346 13.4635 4.91846C13.3106 4.76015 13.0498 4.65872 12.715 4.65872C12.1228 4.65872 11.2999 4.97579 10.4518 5.84672C9.13349 7.21167 9.8819 8.50761 9.8819 9.07651C9.8819 9.64504 9.64038 9.96662 8.84925 10.7401C8.05233 11.517 7.77729 12.183 7.68615 14.86C7.65123 16.2393 7.41082 17.0333 7.19501 17.7373C7.00853 18.3544 6.83703 18.9345 6.82776 19.7727C6.813 20.7016 6.96601 21.3002 7.14458 21.9909C7.3199 22.6293 7.50611 23.3608 7.62541 24.5844C7.81517 26.4785 7.7492 28.0786 7.4042 29.7139L7.31212 30.1236L7.29061 30.2413C7.21995 30.5288 7.13597 30.8778 7.02245 31.0086C2.77186 27.958 0 22.9759 0 17.3442C0 8.05891 7.51913 0.530273 16.7952 0.530273Z" fill="#F14635"/>
<path d="M97.731 12.1661C99.3927 12.1661 100.685 12.7607 101.607 13.9498C102.529 15.139 102.99 16.7736 102.99 18.8535V19.0471C102.99 21.0787 102.519 22.7012 101.576 23.9145C100.633 25.1279 99.3594 25.7345 97.7559 25.7345C96.518 25.7345 95.5002 25.2951 94.7026 24.4164V31.0187H90.5029V12.408H94.4285L94.5532 13.6173C95.359 12.6498 96.4183 12.1661 97.731 12.1661ZM68.4457 12.1661C70.1654 12.1661 71.5238 12.5733 72.5208 13.3875C73.5178 14.2018 74.0287 15.3184 74.0536 16.7373V22.5299C74.0703 23.7312 74.2613 24.6502 74.6269 25.2871V25.4927H70.4271C70.2776 25.2266 70.1446 24.8357 70.0283 24.3197C69.2557 25.2629 68.1756 25.7345 66.7882 25.7345C65.517 25.7345 64.437 25.3616 63.5479 24.6159C62.659 23.8702 62.2145 22.933 62.2145 21.8043C62.2145 20.3854 62.7545 19.3131 63.8346 18.5875C64.9147 17.862 66.4849 17.4991 68.5453 17.4991H69.8414V16.8099C69.8414 15.6086 69.3056 15.008 68.2338 15.008C67.2368 15.008 66.7383 15.4837 66.7383 16.4349H62.5385C62.5385 15.1692 63.093 14.1414 64.2023 13.3512C65.3113 12.5612 66.7258 12.1661 68.4457 12.1661ZM82.1164 12.1661C83.8942 12.1661 85.3231 12.5571 86.4032 13.3391C87.4834 14.1212 88.0234 15.1491 88.0234 16.4228H83.8112C83.8112 15.3749 83.242 14.8508 82.1039 14.8508C81.6634 14.8508 81.2938 14.9697 80.9947 15.2075C80.6956 15.4454 80.546 15.7416 80.546 16.0964C80.546 16.4592 80.7288 16.7534 81.0943 16.9791C81.4599 17.2049 82.0435 17.3903 82.8452 17.5354C83.647 17.6806 84.3512 17.8539 84.9578 18.0554C86.9849 18.7326 87.9984 19.946 87.9984 21.6954C87.9984 22.8886 87.4522 23.8601 86.3597 24.6099C85.2671 25.3596 83.8527 25.7345 82.1164 25.7345C80.9614 25.7345 79.9312 25.533 79.0257 25.1299C78.1201 24.7268 77.4139 24.1785 76.907 23.4852C76.4002 22.7919 76.1468 22.0623 76.1468 21.2964H80.0725C80.0891 21.901 80.2967 22.3424 80.6956 22.6206C81.0943 22.8987 81.6052 23.0377 82.2284 23.0377C82.8016 23.0377 83.2317 22.9249 83.5183 22.6992C83.8049 22.4734 83.9481 22.1792 83.9481 21.8163C83.9481 21.4697 83.7614 21.1915 83.3874 20.982C83.0135 20.7724 82.3031 20.5546 81.2564 20.329C80.2096 20.1033 79.3455 19.8069 78.6642 19.4401C77.983 19.0733 77.4637 18.6278 77.1064 18.1038C76.7492 17.5798 76.5706 16.9791 76.5706 16.3019C76.5706 15.1007 77.0815 14.1111 78.1034 13.3331C79.1253 12.5551 80.463 12.1661 82.1164 12.1661ZM50.5628 6.89456V15.6489L56.5068 6.89456H61.9154L55.2735 15.6731L61.405 25.4927H56.2207L52.3573 18.9383L50.5628 20.849V25.4927H46.1885V6.89456H50.5628ZM109.781 12.408V25.4927H105.569V12.408H109.781ZM146.817 12.408V14.6089L140.811 22.3485H146.955V25.4927H135.502V23.2192L141.484 15.5522H134.436L137.243 12.408H146.817ZM115.413 21.2719C116.562 21.2719 117.492 22.1786 117.492 23.2973C117.492 24.4158 116.562 25.3226 115.413 25.3226C114.264 25.3226 113.333 24.4158 113.333 23.2973C113.333 22.1786 114.264 21.2719 115.413 21.2719ZM125.166 6.89404V16.6664L125.59 16.1275L128.764 12.343H133.812L129.077 17.6723L134.125 25.301H129.302L126.353 20.4747L125.166 21.6124V25.301H120.955V6.89404H125.166ZM69.8414 19.6759H68.6201C67.1579 19.6759 66.4268 20.3128 66.4268 21.5866C66.4268 21.9575 66.5555 22.2578 66.8131 22.4876C67.0706 22.7173 67.3988 22.8322 67.7976 22.8322C68.321 22.8322 68.7551 22.7234 69.0999 22.5057C69.4447 22.288 69.6918 22.0421 69.8414 21.768V19.6759ZM96.6967 15.3104C95.6997 15.3104 95.0349 15.657 94.7026 16.3503V21.502C95.0682 22.2275 95.7412 22.5904 96.7216 22.5904C98.0592 22.5904 98.7487 21.4697 98.7902 19.2285V18.7931C98.7902 16.4713 98.0925 15.3104 96.6967 15.3104ZM107.732 6.89404C108.881 6.89404 109.812 7.84396 109.812 9.01578C109.812 10.1876 108.881 11.1375 107.732 11.1375C106.584 11.1375 105.653 10.1876 105.653 9.01578C105.653 7.84396 106.584 6.89404 107.732 6.89404Z" fill="black"/>
</svg>
