<?xml version="1.0" standalone="no"?>
<!DOCTYPE svg PUBLIC "-//W3C//DTD SVG 20010904//EN"
 "http://www.w3.org/TR/2001/REC-SVG-20010904/DTD/svg10.dtd">
<svg version="1.0" xmlns="http://www.w3.org/2000/svg"
 width="1024.000000pt" height="1024.000000pt" viewBox="0 0 1024.000000 1024.000000"
 preserveAspectRatio="xMidYMid meet">
<metadata>
Created by potrace 1.14, written by Peter Selinger 2001-2017
</metadata>
<g transform="translate(0.000000,1024.000000) scale(0.100000,-0.100000)"
fill="#000000" stroke="none">
<path d="M0 5120 l0 -5120 5120 0 5120 0 0 5120 0 5120 -5120 0 -5120 0 0
-5120z m1990 3375 c181 -20 330 -43 630 -100 259 -49 2138 -375 3290 -571
1324 -225 1877 -322 2353 -414 l217 -42 0 -784 0 -784 -335 0 -335 0 0 504 c0
472 -1 505 -17 510 -10 3 -1208 210 -2663 461 -1455 251 -2657 459 -2672 462
l-28 6 0 -972 0 -971 -335 0 -335 0 0 1361 0 1360 43 -5 c23 -3 107 -13 187
-21z m6140 -4035 c135 -6 269 -13 298 -16 l52 -5 0 -779 0 -778 -62 -11
c-1049 -180 -6611 -1143 -6631 -1147 l-27 -6 0 1371 0 1371 335 0 335 0 0
-970 c0 -870 2 -970 16 -970 15 0 5211 901 5312 921 l52 10 0 510 0 509 38 0
c20 0 147 -4 282 -10z"/>
</g>
</svg>
